<svg xmlns="http://www.w3.org/2000/svg" xmlns:xlink="http://www.w3.org/1999/xlink" width="500" zoomAndPan="magnify" viewBox="0 0 375 374.999991" height="500" preserveAspectRatio="xMidYMid meet" version="1.0"><defs><g/></defs><g fill="#ffffff" fill-opacity="1"><g transform="translate(-9.172238, 241.43254)"><g><path d="M 75.640625 -100.390625 L 86.9375 -82.515625 L 33.765625 -51.46875 L 86.9375 -20.984375 L 75.21875 -2.546875 L 11.390625 -42.203125 L 11.390625 -60.5625 Z M 75.640625 -100.390625 "/></g></g></g><g fill="#cb6ce6" fill-opacity="1"><g transform="translate(89.15709, 241.43254)"><g><path d="M 66.296875 -57.359375 C 66.296875 -65.003906 65.648438 -71.226562 64.359375 -76.03125 C 63.078125 -80.84375 61.300781 -84.5625 59.03125 -87.1875 C 56.769531 -89.8125 54.109375 -91.613281 51.046875 -92.59375 C 47.992188 -93.582031 44.691406 -94.078125 41.140625 -94.078125 L 35.40625 -94.078125 L 35.40625 -19.421875 L 41.140625 -19.421875 C 44.847656 -19.421875 48.242188 -20.003906 51.328125 -21.171875 C 54.421875 -22.347656 57.085938 -24.34375 59.328125 -27.15625 C 61.566406 -29.976562 63.285156 -33.847656 64.484375 -38.765625 C 65.691406 -43.679688 66.296875 -49.878906 66.296875 -57.359375 Z M 94.15625 -57.359375 C 94.15625 -45.835938 92.640625 -36.332031 89.609375 -28.84375 C 86.578125 -21.363281 82.460938 -15.53125 77.265625 -11.34375 C 72.078125 -7.164062 66.191406 -4.226562 59.609375 -2.53125 C 53.023438 -0.84375 46.210938 0 39.171875 0 L 8.515625 0 L 8.515625 -113.578125 L 37.203125 -113.578125 C 44.472656 -113.578125 51.503906 -112.820312 58.296875 -111.3125 C 65.097656 -109.8125 71.191406 -107.050781 76.578125 -103.03125 C 81.960938 -99.019531 86.238281 -93.34375 89.40625 -86 C 92.570312 -78.65625 94.15625 -69.109375 94.15625 -57.359375 Z M 94.15625 -57.359375 "/></g></g></g><g fill="#ffffff" fill-opacity="1"><g transform="translate(187.486417, 241.43254)"><g><path d="M 24.90625 18.359375 L 4.671875 9.09375 L 73.59375 -133.90625 L 93.65625 -124.640625 Z M 24.90625 18.359375 "/></g></g></g><g fill="#ffffff" fill-opacity="1"><g transform="translate(285.82461, 241.43254)"><g><path d="M 22.859375 -100.390625 L 86.9375 -60.71875 L 86.9375 -42.203125 L 23.109375 -2.546875 L 11.390625 -20.15625 L 64.65625 -51.46875 L 11.390625 -81.78125 Z M 22.859375 -100.390625 "/></g></g></g></svg>